<?xml version="1.0" standalone="no"?>
<!DOCTYPE svg PUBLIC "-//W3C//DTD SVG 20010904//EN"
 "http://www.w3.org/TR/2001/REC-SVG-20010904/DTD/svg10.dtd">
<svg version="1.0" xmlns="http://www.w3.org/2000/svg"
 width="458.000000pt" height="458.000000pt" viewBox="0 0 458.000000 458.000000"
 preserveAspectRatio="xMidYMid meet">
<metadata>
Created by potrace 1.11, written by Peter Selinger 2001-2013
</metadata>
<g transform="translate(0.000000,458.000000) scale(0.100000,-0.100000)"
fill="#000000" stroke="none">
<path d="M2985 3553 c-77 -11 -110 -26 -166 -79 -70 -67 -89 -106 -65 -133 19
-20 21 -85 6 -176 -19 -116 -24 -129 -43 -122 -8 2 -12 31 -12 79 0 42 -3 80
-8 84 -15 15 -54 -38 -77 -104 -28 -82 -32 -87 -60 -72 -27 14 -24 38 21 155
38 99 58 137 77 151 13 9 5 15 -39 32 -70 26 -343 41 -429 23 -61 -12 -98 -13
-245 -8 -55 2 -120 -1 -145 -5 -25 -5 -74 -12 -110 -18 -36 -5 -85 -16 -110
-25 -25 -9 -75 -19 -112 -22 -36 -3 -72 -9 -78 -13 -7 -4 -13 -24 -14 -44 -1
-35 0 -37 24 -31 48 11 185 24 274 24 l89 1 -6 -46 c-4 -37 -2 -44 10 -40 8 3
39 6 69 6 43 0 54 3 54 16 0 9 -9 18 -20 21 -25 7 -26 29 -1 43 21 11 388 14
415 4 26 -10 18 -31 -15 -38 -43 -8 -35 -34 21 -62 25 -13 45 -28 44 -33 -1
-6 -2 -15 -2 -21 -2 -8 -56 -43 -72 -45 -3 0 -14 -5 -25 -11 -11 -6 -40 -12
-65 -13 -145 -7 -179 -10 -220 -20 -25 -5 -65 -10 -90 -11 -44 0 -46 -1 -45
-30 l0 -29 106 6 c118 7 224 -13 255 -49 16 -17 16 -20 -7 -44 -19 -21 -31
-25 -59 -21 -147 21 -194 26 -260 27 -42 0 -100 6 -130 14 -30 7 -93 19 -140
26 -47 7 -117 20 -156 30 -76 20 -144 13 -191 -17 -18 -12 -32 -12 -82 -2 -33
6 -88 9 -122 7 -59 -4 -62 -4 -71 22 -9 26 -11 27 -83 26 -93 -1 -106 9 -75
59 28 45 46 57 140 91 41 14 91 37 112 50 21 13 42 24 48 24 21 0 91 41 85 50
-3 5 0 7 8 4 8 -3 19 1 26 9 10 12 5 13 -32 6 -24 -4 -61 -15 -83 -23 -62 -24
-233 -66 -298 -73 -45 -5 -66 -12 -82 -30 -12 -12 -29 -23 -38 -23 -9 0 -16
-8 -16 -19 0 -12 -10 -21 -27 -26 -15 -3 -49 -30 -76 -58 -27 -29 -53 -53 -58
-53 -5 -1 -14 -2 -20 -3 -7 0 0 -10 15 -22 32 -25 32 -32 1 -73 -14 -18 -25
-40 -25 -49 0 -8 -5 -17 -11 -19 -9 -3 -9 -9 0 -25 6 -12 11 -46 11 -75 0 -48
2 -53 23 -55 12 0 60 -13 107 -28 130 -41 179 -54 250 -65 85 -14 123 -29 116
-47 -4 -8 -6 -17 -6 -19 0 -10 -62 -3 -136 15 -230 56 -313 72 -337 66 -27 -7
-35 -19 -18 -29 4 -3 11 -35 14 -71 3 -36 11 -73 16 -83 5 -10 13 -54 16 -98
4 -43 13 -112 21 -153 8 -41 12 -76 10 -79 -9 -8 62 -62 82 -62 25 0 33 33 30
130 -2 53 3 75 25 121 29 62 35 66 105 74 26 3 74 10 107 15 116 19 205 27
205 17 0 -5 6 -5 13 1 31 26 167 37 407 33 137 -3 161 -1 210 18 30 12 70 21
89 21 18 0 83 16 145 34 61 19 147 40 192 46 45 6 95 15 113 20 22 6 31 5 31
-3 0 -7 5 -4 11 6 5 9 15 17 21 17 6 0 35 18 64 41 42 32 66 43 111 49 32 5
71 12 86 16 26 6 35 0 90 -57 33 -35 71 -82 83 -105 24 -44 127 -149 132 -133
2 5 10 9 18 9 18 0 18 3 -6 50 -42 83 -15 104 61 47 80 -61 117 -78 196 -92
98 -17 122 -26 164 -63 19 -16 60 -44 92 -63 59 -35 72 -57 37 -66 -51 -13 11
-70 106 -98 30 -9 53 -19 50 -24 -6 -9 169 22 204 36 18 8 34 7 58 -3 29 -12
33 -11 45 6 14 24 46 25 115 5 52 -16 52 -16 52 -56 0 -75 66 -159 126 -159
35 0 84 36 84 61 0 8 -23 22 -51 33 -54 19 -109 63 -92 75 5 3 15 20 22 36 25
62 53 84 131 105 83 22 126 25 135 10 3 -5 22 -14 42 -19 67 -19 98 38 46 83
-24 21 -35 23 -84 19 -32 -3 -69 -3 -83 1 l-26 6 54 103 c78 147 86 185 93
438 5 202 4 222 -16 300 -29 111 -38 135 -74 192 -25 41 -32 46 -45 35 -13
-11 -14 -11 -8 2 7 11 4 11 -9 -2 -17 -16 -17 -18 3 -50 48 -78 99 -330 86
-430 -6 -47 -83 -236 -121 -295 -8 -11 -45 -42 -83 -68 l-70 -46 0 -72 c0 -86
-7 -117 -26 -117 -19 0 -22 12 -27 97 -2 40 -6 76 -10 79 -22 22 22 83 69 98
29 9 82 64 105 108 10 20 19 39 19 42 0 2 -17 -1 -37 -6 -21 -5 -74 -17 -118
-26 -68 -14 -85 -22 -115 -54 -79 -82 -103 -210 -42 -224 61 -15 65 -35 18
-88 -41 -47 -72 -47 -69 1 3 27 -4 36 -47 67 -28 20 -50 41 -50 46 0 15 27 66
60 115 38 57 73 154 55 151 -8 -1 -18 -5 -21 -9 -4 -4 -16 -7 -27 -7 -16 0
-18 6 -15 50 3 51 0 55 -38 38 -36 -17 -90 18 -207 131 -115 111 -167 190
-167 252 0 30 2 31 30 26 17 -4 30 -3 30 1 0 11 -25 75 -37 98 -30 52 -34 110
-13 176 33 107 28 115 -57 98 -62 -13 -103 -46 -103 -82 0 -18 -10 -27 -43
-40 -23 -10 -56 -21 -74 -24 -18 -3 -31 -9 -31 -13 1 -3 -11 -30 -26 -60 -36
-70 -44 -149 -21 -211 9 -25 23 -66 31 -93 48 -154 146 -322 236 -408 59 -56
63 -86 16 -114 -18 -10 -48 -31 -66 -47 -28 -24 -42 -29 -75 -26 -34 2 -43 7
-45 24 -2 16 4 23 25 29 15 3 38 16 50 27 18 17 20 24 11 42 -6 11 -19 27 -29
34 -10 7 -26 37 -34 66 -9 30 -29 68 -45 85 -17 17 -30 33 -30 35 0 14 -64
105 -69 98 -3 -4 -15 -8 -26 -7 -15 0 -24 -13 -38 -50 -10 -27 -20 -61 -21
-75 -1 -14 -6 -42 -10 -63 -11 -48 -30 -46 -68 8 -31 46 -36 94 -13 148 8 20
15 64 15 97 0 70 17 118 60 166 27 31 35 52 31 77 -2 15 23 103 42 147 23 50
54 90 72 90 22 0 48 38 41 63 -4 19 -13 24 -49 25 -66 4 -102 16 -106 37 -2
10 5 25 15 32 16 12 16 13 -7 12 -13 -1 -37 -4 -54 -6z"/>
<path d="M2328 2445 c-16 -8 -40 -21 -54 -29 -26 -13 -62 -76 -44 -76 4 0 13
-13 18 -30 10 -28 9 -30 -16 -36 -15 -3 -37 -10 -50 -15 -43 -17 -55 9 -24 49
22 29 16 98 -8 95 -51 -8 -78 -18 -102 -40 -22 -21 -33 -24 -62 -19 -25 5 -43
2 -60 -9 -14 -9 -29 -14 -35 -11 -19 12 -41 -7 -51 -44 -8 -31 -7 -44 7 -69
17 -28 17 -31 1 -47 -21 -21 -43 -13 -67 26 -14 24 -17 40 -10 73 4 23 5 45 3
48 -2 4 -30 -3 -61 -14 -59 -21 -103 -57 -103 -83 0 -36 -26 -94 -42 -94 -27
0 -39 35 -40 108 0 37 -2 70 -4 74 -8 12 -79 -23 -98 -49 -18 -24 -18 -27 -3
-38 23 -16 21 -27 -6 -53 -47 -44 -67 -18 -59 74 5 64 5 64 -22 64 -16 0 -29
-7 -33 -17 -4 -10 -15 -24 -26 -32 -10 -7 -16 -19 -13 -26 3 -8 -2 -19 -10
-25 -8 -7 -14 -25 -14 -40 0 -36 -32 -46 -57 -18 -12 13 -19 41 -21 89 -4 56
-8 72 -23 80 -22 11 -49 -8 -49 -35 0 -8 -6 -19 -13 -23 -8 -4 -16 -16 -20
-25 -15 -40 -97 1 -97 48 0 17 -11 18 -45 2 -19 -8 -25 -19 -25 -42 0 -17 7
-39 15 -50 12 -16 12 -23 -1 -54 -8 -20 -16 -38 -18 -40 -9 -8 -46 25 -57 50
-8 20 -17 26 -33 24 -11 -3 -23 -5 -26 -5 -3 -1 -4 -19 -2 -42 4 -33 1 -41
-15 -45 -15 -4 -18 -13 -15 -46 l4 -40 47 7 c25 4 53 13 63 22 13 11 24 12 55
4 21 -5 54 -7 73 -3 36 8 110 -18 110 -38 0 -6 17 -10 39 -10 44 0 72 -23 53
-42 -16 -16 -15 -28 2 -28 24 0 29 -20 10 -35 -11 -8 -35 -15 -54 -15 -40 0
-54 -8 -63 -32 -9 -25 -28 -22 -73 12 -44 33 -66 37 -84 15 -11 -13 -10 -22 4
-51 9 -20 14 -40 11 -45 -4 -5 -51 -9 -105 -9 l-99 0 -3 -27 c-4 -40 -54 -52
-117 -29 -52 18 -141 19 -141 1 0 -6 5 -16 11 -22 28 -28 -35 -37 -68 -10 -10
7 -13 4 -13 -11 0 -12 -12 -32 -27 -46 -24 -22 -33 -25 -91 -21 -57 4 -63 3
-57 -13 21 -51 20 -52 -34 -52 -39 0 -51 -4 -51 -15 0 -18 -38 -20 -90 -5 -43
12 -54 2 -34 -35 8 -16 13 -42 11 -59 -7 -62 62 -89 120 -48 36 26 89 29 114
6 22 -20 32 -14 52 29 14 29 22 34 53 35 28 1 37 -3 41 -18 3 -11 14 -20 25
-20 23 0 75 25 103 50 36 32 64 34 92 8 15 -12 23 -17 19 -10 -12 21 32 62 64
60 28 -2 74 26 130 79 19 18 40 33 46 33 6 0 24 10 39 22 17 13 51 25 84 30
31 4 76 13 101 19 25 6 86 12 135 13 159 3 161 4 192 36 22 24 36 30 69 30 32
0 54 10 105 45 93 65 112 72 236 80 108 6 112 6 123 -15 18 -34 3 -84 -40
-139 -22 -28 -40 -55 -40 -61 0 -6 -12 -32 -27 -58 -16 -26 -28 -49 -29 -52
-3 -21 -30 -60 -43 -62 -9 -2 -35 2 -59 9 -23 7 -49 10 -56 7 -17 -6 -27 -65
-15 -80 23 -29 -20 -60 -97 -71 -24 -3 -49 -12 -55 -19 -6 -8 -17 -14 -23 -14
-7 0 -12 -11 -12 -25 0 -30 26 -41 56 -25 13 7 40 9 69 5 42 -6 50 -3 85 24
21 17 49 31 62 31 17 0 28 10 40 35 12 25 23 35 39 35 13 0 36 10 52 23 15 13
47 29 71 36 37 10 47 10 68 -4 33 -21 39 -19 36 13 -2 19 11 44 43 87 61 81
63 89 25 136 -17 22 -30 47 -29 57 2 9 -3 34 -10 54 -7 21 -10 42 -6 47 6 11
51 21 136 30 4 1 9 12 11 26 6 27 -9 37 -33 22 -26 -16 -49 -1 -49 33 0 25 -4
30 -23 30 -27 0 -47 17 -47 40 0 17 38 40 66 40 17 0 165 -98 177 -118 5 -7
17 -10 26 -7 23 7 43 -17 39 -47 -3 -26 -10 -25 143 -9 83 9 123 22 201 62 48
25 60 24 88 -6 15 -16 34 -25 54 -25 21 0 41 -11 66 -35 26 -25 50 -37 88 -45
29 -5 61 -14 71 -19 14 -8 22 -4 40 20 12 17 30 29 38 27 20 -4 39 -77 48
-178 11 -133 12 -138 55 -162 33 -19 40 -29 40 -53 0 -38 33 -175 42 -175 4 0
16 13 28 30 17 23 29 30 55 30 39 0 55 -20 55 -68 0 -24 11 -40 48 -72 26 -24
47 -51 48 -64 1 -11 2 -35 3 -53 1 -22 7 -34 22 -38 11 -4 25 -18 31 -31 8
-17 19 -24 38 -24 23 0 27 4 28 30 0 16 -4 32 -9 35 -5 4 -9 28 -9 55 0 27 -4
52 -10 55 -5 3 -10 15 -10 25 0 10 -11 27 -25 38 -14 11 -25 30 -25 42 0 21 3
22 48 16 80 -12 84 -12 95 6 8 11 8 25 2 43 -12 30 -200 222 -227 231 -27 8
-33 -2 -19 -28 7 -13 19 -36 27 -51 20 -36 12 -44 -29 -28 -18 7 -45 16 -62
20 -26 6 -30 12 -33 46 -4 42 -20 63 -68 88 -46 24 -62 48 -70 106 l-7 54 32
-5 c17 -2 31 -3 31 0 0 11 -63 82 -73 82 -7 0 -23 9 -37 19 -23 19 -24 20 -7
39 9 10 17 30 17 44 0 14 7 39 15 54 12 24 20 28 47 26 18 -2 40 -12 49 -22 9
-11 19 -17 22 -14 6 6 68 -11 100 -27 9 -5 42 -11 72 -13 30 -3 64 -11 74 -18
25 -18 91 -11 91 8 0 8 -3 14 -7 15 -5 0 -15 2 -23 4 -8 1 -44 8 -79 15 -36 6
-82 20 -103 31 -20 10 -42 19 -48 19 -11 0 -155 104 -165 120 -3 5 -1 19 6 31
23 44 -32 95 -113 104 -62 8 -94 -11 -90 -53 3 -26 -1 -34 -23 -44 -21 -10
-32 -8 -65 10 -22 12 -42 17 -45 11 -10 -14 -45 -11 -51 6 -4 8 -14 15 -23 15
-10 0 -30 13 -45 29 -16 16 -39 32 -52 35 -14 4 -26 16 -30 30 -6 25 -44 49
-60 38 -5 -4 -18 -26 -28 -48 -14 -32 -16 -46 -7 -62 18 -34 13 -50 -21 -66
-17 -9 -35 -16 -40 -16 -6 0 -17 -9 -26 -19 -22 -25 -116 -36 -135 -16 -15 15
-31 91 -22 105 3 4 -2 11 -11 14 -9 4 -14 13 -10 21 3 9 -1 18 -9 21 -20 8
-19 40 3 62 10 10 18 31 17 47 0 24 -5 30 -25 32 -14 2 -37 -4 -52 -12z"/>
</g>
</svg>
