<?xml version="1.0" standalone="no"?>
<!DOCTYPE svg PUBLIC "-//W3C//DTD SVG 20010904//EN"
 "http://www.w3.org/TR/2001/REC-SVG-20010904/DTD/svg10.dtd">
<svg version="1.0" xmlns="http://www.w3.org/2000/svg"
 width="512.000000pt" height="512.000000pt" viewBox="0 0 512.000000 512.000000"
 preserveAspectRatio="xMidYMid meet">
<metadata>
Created by potrace 1.11, written by Peter Selinger 2001-2013
</metadata>
<g transform="translate(0.000000,512.000000) scale(0.100000,-0.100000)"
fill="#000000" stroke="none">
<path d="M3149 3595 c-3 -2 -26 -6 -52 -9 -63 -5 -103 -33 -155 -105 l-32 -43
20 -25 c10 -13 17 -30 15 -36 -2 -7 -6 -39 -9 -72 -11 -108 -24 -150 -42 -132
-7 7 -7 62 0 95 3 12 0 22 -5 22 -6 0 -7 5 -4 10 3 6 -1 10 -9 10 -9 0 -16 -4
-16 -8 0 -5 -10 -19 -22 -32 -13 -14 -22 -27 -20 -30 6 -8 -20 -80 -29 -80 -4
0 -15 7 -24 16 -13 13 -13 19 -3 32 7 8 12 17 10 19 -9 10 65 183 78 183 19 0
10 18 -12 25 -13 4 -30 10 -38 13 -8 3 -43 6 -77 8 -34 1 -65 4 -70 7 -15 8
-208 -3 -228 -14 -5 -3 -23 -4 -40 -2 -68 6 -171 9 -179 5 -4 -2 -27 -6 -50
-9 -22 -2 -59 -5 -81 -8 -22 -2 -41 -4 -42 -5 -2 -2 -6 -3 -10 -5 -5 -1 -15
-5 -23 -8 -27 -11 -104 -27 -137 -27 -36 0 -52 -20 -45 -56 3 -19 8 -22 21
-14 27 14 192 26 278 21 8 -1 11 -14 10 -34 l-3 -33 45 2 c26 1 53 3 61 4 11
0 9 6 -7 19 -53 44 -24 53 174 53 161 0 209 -11 145 -33 -18 -6 -32 -15 -32
-20 0 -4 20 -20 45 -35 38 -22 44 -29 33 -41 -28 -34 -92 -56 -173 -58 -44 -2
-101 -8 -127 -14 -27 -6 -51 -11 -55 -10 -5 1 -20 1 -35 0 -23 -1 -27 -5 -26
-24 2 -23 4 -23 103 -23 55 0 111 -3 125 -7 14 -5 30 -9 36 -10 6 -2 18 -10
27 -19 15 -14 14 -17 -6 -36 -17 -16 -31 -20 -62 -16 -22 3 -41 9 -43 14 -2 6
-10 6 -21 0 -10 -5 -21 -6 -25 -3 -4 4 -47 8 -96 9 -49 1 -104 7 -122 12 -36
11 -77 19 -152 27 -28 4 -55 9 -60 13 -15 9 -35 12 -76 12 -55 0 -74 -5 -100
-23 -13 -9 -28 -13 -34 -9 -17 10 -35 12 -113 14 -40 1 -70 5 -67 9 2 4 -3 14
-11 22 -11 12 -23 13 -46 7 -20 -6 -39 -6 -50 1 -11 5 -19 6 -19 2 0 -4 -5 -2
-11 4 -21 21 26 79 79 99 62 22 231 103 257 121 18 14 16 15 -24 9 -24 -4 -49
-10 -55 -14 -6 -3 -15 -7 -21 -9 -5 -1 -35 -9 -65 -18 -30 -8 -68 -18 -85 -20
-16 -3 -43 -8 -60 -13 -16 -5 -35 -7 -42 -5 -7 3 -22 -5 -35 -16 -12 -12 -28
-21 -35 -21 -7 0 -13 -6 -13 -13 0 -8 -12 -20 -27 -28 -14 -8 -47 -35 -73 -60
-44 -44 -45 -46 -26 -60 19 -15 19 -16 -8 -52 -16 -20 -25 -37 -20 -37 4 0 3
-5 -4 -12 -6 -6 -8 -18 -3 -27 4 -9 7 -35 7 -58 -1 -24 3 -42 9 -41 5 0 17 -2
25 -5 35 -14 120 -35 120 -30 0 3 6 1 13 -5 13 -11 85 -32 132 -39 17 -2 39
-6 50 -8 11 -2 25 -4 31 -4 17 -1 27 -33 13 -42 -7 -4 -17 -5 -23 -3 -6 2 -22
6 -36 8 -24 5 -63 14 -85 20 -5 1 -32 6 -60 11 -27 4 -54 10 -60 13 -12 8 -25
10 -82 16 -44 5 -62 -6 -45 -27 5 -7 8 -20 7 -29 -2 -9 1 -34 7 -55 14 -55 18
-82 23 -138 2 -27 7 -68 12 -90 5 -22 9 -49 8 -60 0 -24 48 -68 71 -63 23 4
26 22 22 129 -1 36 41 117 66 125 11 4 36 8 55 10 20 2 56 6 81 10 58 9 64 11
70 13 17 8 90 5 90 -4 0 -5 4 -5 8 2 8 13 51 23 122 28 25 2 47 4 50 5 3 2 9
2 14 1 51 -10 248 -5 286 7 46 14 57 17 121 26 20 3 53 12 73 20 20 8 36 13
36 10 0 -3 8 0 18 5 21 11 57 19 117 26 22 3 51 7 65 10 14 4 36 8 49 11 22 5
79 38 91 55 11 13 50 29 77 30 15 1 42 6 60 12 29 10 34 8 77 -37 24 -26 56
-66 70 -89 28 -46 92 -112 110 -112 18 -1 25 28 11 45 -19 23 -28 70 -13 70 7
0 47 -21 88 -47 40 -27 85 -49 99 -50 86 -7 105 -14 210 -86 72 -49 83 -63 56
-73 -29 -11 -13 -39 35 -60 97 -43 123 -47 189 -28 14 4 30 6 35 5 4 -1 14 3
21 9 13 10 54 8 75 -5 6 -3 13 1 16 10 5 12 17 16 48 14 63 -4 92 -22 90 -56
-2 -40 35 -100 74 -119 30 -14 35 -14 57 0 13 9 29 25 34 35 9 16 6 20 -17 26
-15 3 -42 16 -60 27 -28 17 -32 25 -27 46 11 46 58 100 90 105 17 3 40 8 53
11 50 14 61 14 86 1 53 -28 86 -21 86 19 0 37 -38 55 -103 50 -30 -2 -58 -1
-61 4 -6 9 32 93 47 103 5 3 8 8 7 10 0 2 5 20 13 39 27 66 29 75 33 120 3 25
6 114 8 199 3 171 -10 249 -60 348 -25 48 -54 76 -54 52 0 -6 -4 -7 -10 -4
-13 8 -13 3 1 -32 6 -15 9 -28 7 -29 -2 0 2 -7 8 -15 30 -36 74 -292 53 -304
-4 -3 -6 -12 -2 -20 5 -16 -41 -139 -63 -165 -7 -8 -14 -19 -15 -25 -6 -32
-27 -55 -79 -89 l-59 -39 0 -70 c1 -71 -13 -106 -31 -77 -5 8 -9 28 -10 45 0
32 -6 88 -10 93 -13 14 28 72 52 72 16 0 71 56 89 91 11 22 18 39 17 39 -2 0
-19 -5 -38 -11 -43 -12 -57 -16 -105 -23 -20 -4 -45 -12 -56 -19 -18 -13 -66
-69 -62 -74 4 -7 -11 -43 -18 -43 -5 0 -7 -10 -5 -22 3 -13 5 -30 5 -39 1 -8
17 -23 36 -32 19 -9 35 -20 35 -25 0 -4 -15 -23 -34 -41 -35 -34 -62 -34 -53
0 3 10 -4 26 -15 36 -10 10 -30 29 -43 41 l-24 24 25 40 c40 62 60 100 72 136
l11 33 -29 -6 c-19 -4 -30 -2 -31 4 -1 6 -2 17 -3 24 -1 6 2 20 6 30 10 19 1
21 -35 8 -21 -8 -33 -4 -69 19 -58 39 -191 177 -209 218 -8 17 -16 32 -19 32
-3 0 -6 12 -5 28 0 22 4 27 26 27 31 -1 31 3 0 70 -31 69 -33 90 -14 167 9 37
14 70 10 74 -14 15 -100 -8 -123 -33 -13 -14 -23 -28 -22 -32 2 -21 -7 -29
-53 -45 -39 -14 -53 -16 -62 -7 -9 10 -8 15 5 25 27 20 1 49 -42 48 -66 -2
-104 33 -62 57 14 9 15 10 1 11 -9 0 -18 -2 -20 -5z m103 -183 c-9 -21 -19
-39 -22 -42 -25 -25 -15 -161 13 -181 5 -3 8 -10 7 -15 0 -5 2 -18 6 -29 3
-11 8 -29 10 -39 8 -36 87 -188 101 -193 7 -3 13 -11 13 -19 0 -8 23 -36 50
-63 28 -27 50 -57 50 -68 0 -27 -102 -98 -137 -97 -43 3 -43 3 -43 19 0 8 11
17 24 21 13 3 34 16 45 28 l22 23 -30 29 c-16 16 -32 42 -35 59 -3 16 -15 41
-26 55 -11 14 -34 46 -51 73 -19 29 -38 47 -50 47 -23 0 -61 -76 -63 -125 -1
-16 -7 -39 -13 -49 -10 -18 -13 -16 -42 24 -30 41 -35 80 -14 113 3 5 7 36 8
67 4 75 11 95 52 152 19 26 31 52 28 58 -4 6 -3 19 1 28 4 9 9 28 11 41 7 40
42 109 60 119 33 19 43 3 25 -36z"/>
<path d="M2587 2694 c2 -6 -9 -14 -26 -17 -41 -8 -66 -55 -46 -84 16 -23 10
-35 -30 -49 -46 -16 -58 -8 -40 26 24 46 16 112 -10 90 -7 -6 -23 -13 -35 -15
-13 -2 -31 -12 -41 -21 -10 -9 -36 -18 -56 -19 -38 -2 -95 -13 -101 -20 -2 -2
-4 -9 -6 -17 -1 -7 -5 -18 -8 -24 -4 -6 0 -23 8 -39 15 -29 5 -55 -20 -55 -20
0 -46 55 -40 85 9 51 0 56 -55 33 -28 -11 -53 -29 -56 -39 -4 -11 -11 -19 -16
-19 -5 0 -8 -3 -7 -7 3 -14 -13 -73 -22 -78 -21 -13 -37 25 -36 84 1 69 -7 78
-52 51 -38 -23 -61 -60 -37 -60 20 0 19 -13 -4 -41 -16 -20 -21 -21 -34 -10
-12 10 -15 26 -12 68 5 54 5 54 -23 51 -15 -2 -26 -8 -25 -15 2 -7 -6 -17 -17
-23 -10 -6 -17 -16 -14 -24 3 -7 -2 -18 -10 -25 -7 -6 -12 -21 -9 -31 4 -16 0
-20 -19 -20 -19 0 -27 7 -35 33 -5 18 -9 50 -8 70 2 27 -1 38 -15 42 -25 8
-50 -4 -43 -21 3 -7 -2 -17 -11 -20 -9 -3 -16 -12 -16 -19 0 -7 -7 -16 -16
-19 -17 -6 -67 41 -58 55 7 12 -9 11 -40 -1 -20 -7 -24 -14 -20 -37 3 -15 10
-33 15 -39 8 -10 -1 -46 -17 -72 -4 -7 -44 24 -44 34 0 18 -27 37 -35 24 -3
-6 -10 -8 -14 -6 -4 3 -5 -9 -3 -26 3 -22 0 -35 -12 -43 -16 -12 -17 -39 -3
-63 6 -9 13 -9 28 -1 12 6 23 8 27 5 3 -3 13 1 23 10 13 12 25 13 51 6 18 -4
44 -6 58 -2 24 6 90 -16 90 -30 0 -4 13 -7 30 -8 40 -1 52 -10 41 -30 -6 -11
-4 -20 7 -28 23 -17 2 -38 -41 -40 -47 -3 -47 -3 -47 -18 0 -26 -17 -26 -54
-1 -40 27 -53 30 -75 16 -11 -7 -11 -14 2 -40 20 -40 11 -45 -76 -46 -65 -1
-95 -14 -81 -37 3 -4 2 -8 -3 -9 -7 0 -42 -7 -60 -10 -4 -1 -22 4 -40 12 -18
8 -50 13 -73 11 -39 -4 -40 -5 -24 -23 15 -17 15 -18 -11 -25 -18 -4 -30 -2
-35 7 -7 10 -11 7 -19 -13 -14 -36 -47 -52 -104 -49 l-48 3 16 -26 c18 -28 20
-27 -36 -30 -14 0 -33 -7 -42 -15 -13 -10 -26 -11 -57 -3 -46 11 -57 3 -38
-30 16 -30 18 -47 7 -53 -14 -10 27 -46 55 -49 14 -2 26 0 26 4 0 24 100 41
108 19 7 -19 31 -8 43 20 17 37 65 48 80 18 13 -22 52 -17 84 12 39 36 66 45
83 28 14 -14 17 -13 34 9 11 13 29 24 41 24 24 0 59 21 103 63 16 15 32 27 37
27 4 0 20 8 34 17 24 16 166 53 203 53 8 0 40 0 70 0 91 0 111 5 137 30 16 15
38 24 62 25 21 1 45 7 52 14 35 29 105 75 119 78 8 1 54 5 102 9 78 5 87 4 96
-12 14 -28 7 -51 -31 -108 -19 -28 -50 -82 -68 -119 -36 -72 -60 -88 -98 -67
-32 17 -56 5 -58 -30 -1 -16 2 -30 7 -30 5 0 7 -7 3 -15 -7 -20 -52 -43 -75
-40 -10 2 -18 -1 -18 -6 0 -4 -6 -6 -13 -3 -7 2 -24 -7 -37 -21 -13 -14 -18
-25 -11 -25 7 0 10 -4 7 -9 -10 -15 19 -19 44 -6 16 9 32 10 48 4 25 -10 61 3
75 27 4 8 19 14 33 14 17 0 30 9 42 30 9 16 24 30 33 30 9 0 27 8 40 19 38 29
94 42 116 25 26 -19 32 -17 27 9 -2 16 9 40 36 77 22 30 40 60 40 68 0 8 -10
28 -22 45 -13 18 -23 39 -24 47 0 8 -4 28 -8 44 -10 34 0 42 65 51 34 5 48 12
52 25 6 22 -11 31 -34 19 -21 -10 -44 14 -35 36 3 8 1 16 -4 16 -6 1 -14 3
-20 4 -5 1 -14 3 -20 4 -21 2 -9 38 16 50 24 11 33 8 95 -34 38 -25 71 -50 74
-55 3 -5 12 -7 19 -4 16 6 30 -13 31 -41 1 -11 6 -19 11 -18 6 1 37 4 70 7 95
8 161 27 203 58 30 23 36 23 60 -3 10 -11 31 -22 46 -23 14 -2 38 -15 53 -29
26 -23 58 -39 92 -42 8 -1 25 -5 37 -9 16 -5 25 -2 33 14 12 23 49 27 51 5 2
-17 5 -34 9 -37 2 -3 11 -92 19 -180 0 -10 16 -28 34 -40 18 -13 32 -30 32
-38 -1 -23 25 -134 34 -143 4 -4 16 3 25 17 22 34 71 36 82 4 4 -13 7 -30 8
-38 2 -19 28 -60 39 -60 15 0 36 -27 36 -46 -2 -51 42 -114 79 -114 19 0 27
37 12 55 -5 6 -8 24 -8 40 2 38 -28 105 -46 105 -9 0 -12 7 -9 21 4 16 13 20
37 18 17 -2 36 -7 42 -11 14 -10 44 16 44 37 0 16 -122 152 -165 183 -39 29
-51 14 -26 -34 23 -43 18 -51 -25 -32 -16 6 -33 12 -39 13 -22 1 -33 16 -30
38 6 29 -2 39 -52 70 -33 21 -45 36 -53 68 -13 47 1 79 26 58 8 -6 14 -8 14
-5 0 20 -26 50 -66 74 -44 28 -44 29 -25 46 11 10 17 25 14 33 -3 8 0 25 7 39
10 18 22 24 47 24 23 0 33 -5 33 -15 0 -8 8 -14 18 -13 25 2 82 -13 82 -22 0
-5 8 -7 18 -5 9 1 22 -2 29 -7 7 -5 14 -5 18 1 4 7 17 5 38 -6 28 -15 74 -19
86 -7 9 9 -16 24 -42 26 -17 1 -27 8 -27 18 0 12 -2 12 -9 2 -9 -15 -49 -8
-96 16 -16 9 -33 15 -37 14 -7 -2 -33 17 -63 46 -8 6 -16 12 -20 12 -3 0 -17
11 -31 24 -23 21 -24 26 -13 45 12 18 11 24 -12 46 -14 14 -38 28 -54 31 -16
3 -31 7 -35 9 -3 2 -20 -3 -36 -11 -24 -12 -30 -21 -28 -40 3 -35 -27 -49 -64
-30 -16 8 -39 12 -51 9 -13 -3 -26 -1 -30 5 -3 6 -13 12 -21 14 -8 2 -23 13
-33 26 -10 12 -25 22 -32 22 -8 0 -23 14 -35 30 -28 39 -51 38 -71 -5 -14 -30
-14 -38 -3 -60 13 -25 12 -27 -18 -43 -17 -9 -39 -25 -50 -34 -10 -10 -18 -16
-18 -14 0 2 -18 0 -40 -4 -46 -8 -77 7 -67 33 3 9 1 19 -4 23 -6 3 -9 15 -6
25 3 11 1 19 -5 19 -6 0 -8 6 -5 14 3 8 -1 17 -9 20 -19 7 -18 33 2 53 8 9 14
27 12 41 -2 21 -9 25 -34 26 -19 1 -30 -3 -27 -10z"/>
</g>
</svg>
