<?xml version="1.0" standalone="no"?>
<!DOCTYPE svg PUBLIC "-//W3C//DTD SVG 20010904//EN"
 "http://www.w3.org/TR/2001/REC-SVG-20010904/DTD/svg10.dtd">
<svg version="1.0" xmlns="http://www.w3.org/2000/svg"
 width="512.000000pt" height="512.000000pt" viewBox="0 0 512.000000 512.000000"
 preserveAspectRatio="xMidYMid meet">
<metadata>
Created by potrace 1.11, written by Peter Selinger 2001-2013
</metadata>
<g transform="translate(0.000000,512.000000) scale(0.100000,-0.100000)"
fill="#000000" stroke="none">
<path d="M3240 3828 c-35 -5 -78 -17 -95 -28 -39 -24 -97 -86 -121 -128 -18
-32 -18 -34 -1 -43 14 -8 17 -23 16 -77 0 -97 -22 -216 -43 -237 -21 -21 -22
-20 -30 33 -4 26 -2 42 4 42 15 0 12 63 -4 85 -13 17 -15 16 -39 -21 -15 -22
-29 -54 -33 -72 -4 -18 -11 -35 -15 -38 -5 -3 -9 -14 -9 -25 0 -23 -27 -25
-55 -5 -19 14 -19 16 15 101 4 11 22 57 40 102 18 46 41 88 53 96 20 13 19 15
-33 34 -81 30 -330 40 -462 19 -63 -11 -104 -13 -120 -7 -30 11 -253 4 -278
-9 -10 -5 -36 -10 -58 -10 -22 0 -68 -9 -103 -20 -35 -12 -84 -23 -109 -26
-111 -13 -108 -11 -112 -54 -2 -27 0 -40 9 -40 6 0 14 4 17 8 3 5 32 10 65 11
33 1 81 5 108 9 26 4 79 6 116 4 l68 -3 -2 -37 c-2 -20 0 -38 4 -39 4 -2 34
-3 67 -3 45 0 60 3 60 14 0 8 -9 18 -20 21 -24 8 -26 28 -5 45 18 15 424 15
439 0 13 -13 -1 -28 -34 -35 -45 -10 -37 -33 20 -58 74 -33 64 -64 -33 -107
-36 -16 -69 -21 -135 -22 -48 0 -116 -7 -152 -14 -36 -8 -84 -14 -106 -14 -44
0 -59 -15 -43 -41 6 -11 37 -14 131 -14 134 -1 206 -15 234 -47 18 -19 18 -20
-10 -45 -26 -22 -36 -24 -75 -19 -25 3 -77 10 -116 15 -38 6 -104 10 -146 10
-41 1 -98 7 -125 15 -27 8 -89 20 -139 26 -49 7 -120 21 -156 30 -55 15 -74
16 -116 6 -28 -6 -57 -17 -66 -24 -13 -11 -30 -11 -92 -1 -41 6 -98 9 -126 6
-49 -6 -51 -6 -61 24 -10 30 -12 31 -55 24 -25 -3 -62 -3 -84 0 -50 9 -51 28
-4 82 27 32 50 46 103 64 37 12 92 34 122 50 30 15 75 37 100 48 25 11 54 27
65 36 19 15 19 16 -15 9 -19 -3 -53 -13 -75 -21 -75 -27 -335 -84 -347 -77 -5
3 -19 -4 -30 -16 -11 -11 -31 -25 -44 -30 -13 -5 -24 -16 -24 -24 0 -13 -19
-26 -48 -32 -20 -4 -52 -35 -52 -51 0 -7 -6 -13 -13 -13 -7 0 -18 -9 -25 -20
-7 -11 -20 -20 -29 -20 -14 0 -13 -3 5 -20 28 -27 28 -45 -3 -82 -14 -16 -25
-36 -25 -44 0 -8 -5 -14 -10 -14 -7 0 -7 -6 0 -19 5 -11 10 -44 10 -73 l0 -54
43 -12 c248 -74 306 -89 362 -96 28 -4 70 -13 95 -21 25 -7 63 -16 85 -20 61
-9 75 -15 75 -31 0 -23 -112 -17 -241 12 -63 14 -143 32 -179 39 -36 8 -95 21
-132 29 -65 16 -118 13 -118 -4 0 -5 5 -12 10 -15 6 -3 10 -24 10 -45 0 -22 6
-59 14 -82 8 -24 18 -77 21 -118 4 -41 13 -110 22 -153 8 -43 12 -81 9 -84 -8
-9 64 -63 84 -63 23 0 33 52 24 120 -5 41 -2 63 17 112 13 33 34 67 46 75 13
9 55 19 95 24 40 4 154 19 253 33 202 28 248 31 455 27 127 -2 152 0 200 18
30 12 74 21 98 21 23 0 50 4 60 10 31 17 195 59 277 70 108 16 177 36 217 65
78 58 94 65 139 65 25 0 54 7 65 15 28 21 38 19 75 -21 19 -21 49 -51 67 -68
19 -17 40 -47 48 -66 8 -19 41 -61 72 -92 52 -52 58 -55 73 -42 16 14 16 19
-8 64 -25 49 -25 80 -1 80 7 0 37 -18 67 -41 79 -60 117 -77 211 -94 77 -15
95 -23 192 -88 59 -39 110 -77 113 -84 2 -8 -6 -18 -20 -23 -14 -5 -25 -14
-25 -19 0 -20 55 -52 124 -72 58 -17 85 -20 145 -15 41 4 87 15 103 24 25 15
30 15 63 -1 33 -16 35 -16 46 5 10 18 17 20 63 15 28 -3 63 -10 79 -16 23 -9
27 -16 27 -50 0 -40 25 -90 70 -139 28 -30 77 -29 113 3 39 34 34 51 -18 64
-48 12 -119 69 -97 78 6 2 12 12 12 20 0 29 70 113 95 113 12 0 42 7 65 15 57
20 89 19 145 -6 44 -20 48 -20 66 -3 26 23 24 46 -6 74 -21 20 -33 22 -104 21
-44 -1 -82 2 -85 7 -3 4 22 62 55 128 71 141 76 168 85 429 7 187 6 193 -21
295 -26 101 -56 172 -89 215 -10 13 -15 15 -16 6 0 -7 -6 -11 -15 -8 -24 10
-27 -12 -7 -46 27 -43 69 -193 82 -293 16 -125 8 -174 -49 -299 -61 -134 -85
-164 -159 -208 l-57 -33 -1 -82 c-1 -89 -22 -147 -57 -158 -27 -9 -29 -2 -10
49 15 41 16 56 5 133 l-13 87 28 23 c15 13 33 23 39 24 30 1 134 119 134 153
0 2 -41 -6 -91 -19 -50 -13 -101 -24 -114 -24 -19 0 -60 -32 -90 -72 -5 -7
-21 -36 -34 -64 -32 -71 -23 -111 30 -132 29 -11 39 -21 39 -37 0 -28 -60 -85
-89 -85 -20 0 -23 4 -19 30 4 26 -2 35 -45 71 -57 48 -57 63 -2 144 36 53 75
137 75 161 0 16 -16 19 -25 4 -3 -5 -15 -10 -27 -10 -19 0 -20 5 -16 50 4 37
2 50 -8 50 -7 0 -16 -4 -19 -10 -11 -17 -54 -11 -93 14 -20 13 -85 73 -144
133 -78 79 -114 123 -133 165 -33 72 -27 103 16 94 36 -7 36 2 4 67 -45 88
-50 136 -24 222 28 94 23 102 -57 84 -65 -15 -92 -36 -100 -78 -5 -24 -17 -32
-77 -57 -68 -28 -73 -32 -100 -87 -37 -74 -45 -149 -22 -202 9 -22 28 -75 41
-118 49 -153 116 -268 213 -365 29 -30 57 -67 61 -83 8 -27 5 -31 -43 -62 -29
-19 -58 -41 -66 -50 -18 -22 -92 -22 -133 -1 l-32 16 33 14 c18 8 43 14 55 14
12 0 32 11 43 24 23 26 17 47 -23 79 -13 10 -25 34 -29 58 -4 25 -20 55 -40
78 -17 20 -45 59 -60 86 -16 28 -30 52 -31 53 -7 10 -64 -12 -64 -24 0 -8 -7
-29 -16 -47 -9 -17 -18 -51 -20 -74 -6 -97 -32 -109 -80 -35 -28 42 -31 52
-24 92 4 25 13 59 19 75 7 17 10 46 7 66 -8 52 18 130 59 175 31 34 40 53 36
77 -3 18 22 107 46 158 18 40 37 63 69 85 56 37 57 65 2 77 -21 4 -55 10 -75
15 -43 8 -56 37 -27 59 20 15 20 15 -76 1z"/>
<path d="M2615 2726 c-16 -7 -42 -18 -57 -24 -15 -6 -34 -23 -44 -37 -15 -23
-15 -27 0 -60 20 -41 16 -51 -21 -58 -16 -3 -40 -9 -55 -13 -23 -5 -28 -3 -28
13 0 11 7 28 15 39 16 21 19 72 6 93 -6 10 -13 11 -29 2 -11 -6 -29 -11 -40
-11 -10 0 -29 -12 -41 -26 -19 -22 -29 -26 -61 -21 -21 3 -43 0 -49 -6 -6 -6
-27 -12 -48 -14 -20 -1 -40 -8 -45 -15 -13 -22 -9 -82 8 -106 18 -27 5 -52
-28 -52 -43 0 -73 60 -59 120 5 21 7 41 4 43 -8 9 -109 -35 -132 -58 -13 -13
-28 -46 -35 -76 -11 -47 -16 -54 -38 -57 -33 -4 -39 14 -40 106 -1 37 -3 70
-5 74 -6 11 -74 -26 -98 -52 -19 -21 -19 -23 -2 -35 22 -16 22 -29 0 -55 -20
-23 -58 -26 -67 -5 -3 8 -3 44 1 80 l6 65 -27 0 c-19 0 -29 -7 -35 -24 -5 -13
-16 -26 -25 -29 -10 -4 -13 -13 -9 -23 4 -10 0 -20 -10 -26 -11 -6 -17 -22
-17 -43 0 -31 -3 -35 -25 -35 -38 0 -68 65 -59 129 6 43 4 50 -13 55 -28 9
-53 -3 -53 -25 0 -10 -6 -22 -14 -26 -8 -4 -16 -17 -18 -28 -8 -41 -98 2 -98
47 0 21 -9 22 -45 6 -30 -13 -35 -61 -9 -89 14 -15 14 -22 2 -55 -7 -20 -19
-39 -26 -41 -14 -6 -52 24 -52 41 0 25 -17 37 -42 31 -24 -6 -25 -10 -20 -47
4 -31 1 -43 -12 -50 -23 -13 -22 -78 2 -78 29 0 85 19 93 32 6 9 19 9 51 2 26
-6 57 -7 76 -2 38 10 111 -17 112 -41 0 -9 8 -12 27 -8 37 7 73 -8 73 -32 0
-11 -6 -22 -12 -24 -8 -4 -4 -8 10 -13 25 -7 26 -32 2 -45 -8 -4 -36 -11 -62
-14 -39 -5 -48 -10 -48 -26 0 -28 -29 -24 -83 12 -38 25 -49 28 -67 19 -21
-11 -21 -41 1 -64 5 -6 9 -18 9 -28 0 -16 -10 -18 -89 -18 -106 0 -121 -5
-121 -35 0 -20 -6 -25 -45 -31 -32 -4 -55 -2 -79 10 -19 9 -51 16 -73 16 -43
0 -72 -13 -54 -24 6 -4 11 -16 11 -28 0 -21 -9 -21 -72 -2 -12 4 -18 0 -18
-11 0 -9 -12 -27 -27 -42 -26 -23 -33 -25 -91 -19 -57 6 -79 -2 -52 -19 6 -3
10 -15 10 -26 0 -16 -7 -19 -50 -19 -38 0 -50 -4 -50 -15 0 -18 -54 -21 -96
-5 -38 15 -52 -1 -30 -35 10 -15 16 -38 15 -53 -4 -43 16 -69 56 -74 19 -2 35
-1 35 2 0 3 13 13 29 23 37 22 89 22 114 0 18 -17 20 -17 33 2 8 11 17 30 21
43 4 18 12 22 48 22 34 0 44 -4 48 -20 8 -30 38 -24 103 20 62 42 82 48 102
28 9 -9 18 -6 40 15 18 17 39 27 58 27 22 0 45 13 85 49 29 26 73 58 96 69 23
12 44 26 48 32 3 5 23 10 43 10 20 0 67 9 104 19 48 14 90 19 145 16 107 -4
168 7 201 37 18 17 42 27 72 30 32 4 63 18 108 49 93 66 94 66 218 73 131 9
144 4 144 -53 0 -28 -11 -52 -43 -97 -24 -32 -48 -70 -53 -84 -22 -59 -75
-149 -91 -154 -10 -3 -39 1 -64 8 -25 8 -50 11 -56 8 -16 -11 -22 -64 -10 -84
9 -14 8 -21 -3 -32 -19 -17 -75 -36 -109 -36 -14 -1 -38 -11 -52 -23 -22 -18
-25 -26 -18 -46 8 -19 13 -22 32 -15 12 4 47 7 77 6 46 -1 61 4 90 27 20 16
49 31 66 35 20 4 34 16 43 36 9 21 20 30 35 30 13 0 36 13 53 28 38 37 105 50
139 27 32 -20 34 -19 34 14 0 18 16 50 43 87 24 33 46 64 50 71 9 14 -14 63
-37 83 -9 7 -15 24 -15 39 1 14 -3 39 -10 54 -20 50 -16 55 64 68 67 10 75 14
75 34 0 29 -9 36 -30 23 -27 -17 -50 -3 -50 31 0 26 -4 30 -32 33 -61 6 -42
77 20 78 23 0 192 -105 192 -119 0 -4 12 -7 28 -6 24 0 27 -4 30 -38 3 -32 6
-36 25 -32 12 3 60 9 107 14 83 8 123 20 202 62 48 25 83 24 102 -2 9 -13 28
-23 46 -24 21 -2 45 -15 68 -38 26 -25 52 -38 87 -45 28 -6 60 -13 72 -17 16
-5 25 -1 38 19 10 15 27 26 39 26 18 0 24 -9 34 -52 6 -29 15 -95 18 -145 4
-51 11 -93 17 -93 5 0 7 -6 4 -13 -2 -6 13 -23 34 -37 29 -18 39 -31 39 -50 0
-35 33 -180 42 -180 4 0 16 14 28 30 16 23 29 30 54 30 41 0 56 -15 56 -56 0
-36 32 -81 73 -103 21 -11 25 -20 25 -62 0 -49 14 -79 36 -79 6 0 16 -10 21
-22 6 -14 20 -24 36 -26 23 -3 26 1 27 27 0 17 -4 33 -9 36 -5 4 -9 28 -9 56
0 27 -4 49 -10 49 -5 0 -10 11 -10 25 0 15 -9 31 -25 41 -16 10 -25 26 -25 41
0 25 2 25 48 19 91 -13 108 -7 96 39 -7 27 -181 217 -217 237 -35 18 -42 -6
-13 -48 14 -21 26 -44 26 -51 0 -17 -39 -16 -70 2 -14 8 -35 14 -47 15 -20 0
-23 5 -23 45 0 44 -1 45 -55 76 -64 36 -71 47 -81 117 -7 54 -5 57 39 52 32
-3 -18 54 -69 81 -45 22 -58 52 -29 63 10 3 15 19 15 46 0 22 5 40 10 40 6 0
10 9 10 20 0 18 4 20 43 14 23 -4 47 -12 52 -19 6 -7 44 -20 85 -30 41 -9 82
-19 90 -22 8 -3 25 -5 38 -4 13 2 34 -5 47 -13 30 -20 95 -22 95 -3 0 8 -30
19 -85 29 -46 9 -103 25 -127 36 -24 11 -51 22 -62 26 -32 11 -156 108 -156
123 0 7 5 22 12 33 32 51 -112 121 -179 86 -25 -12 -29 -20 -25 -45 3 -26 0
-32 -23 -43 -24 -11 -33 -9 -66 9 -21 12 -41 17 -45 12 -9 -14 -44 -10 -50 6
-4 8 -15 15 -26 15 -10 0 -30 13 -44 29 -13 16 -35 32 -48 35 -14 3 -28 16
-32 29 -8 26 -22 37 -49 37 -28 0 -61 -80 -46 -109 17 -30 13 -52 -9 -58 -11
-3 -20 -9 -20 -14 0 -5 -11 -9 -24 -9 -15 0 -26 -7 -28 -18 -4 -15 -19 -20
-68 -25 -72 -8 -90 1 -90 44 0 15 -5 31 -10 34 -7 4 -7 13 0 26 9 15 7 19 -5
19 -9 0 -15 9 -15 25 0 14 -4 25 -10 25 -11 0 -13 30 -4 54 3 9 11 16 18 16 6
0 11 15 11 32 0 38 -16 44 -60 24z"/>
</g>
</svg>
