<svg version="1.1" xmlns="http://www.w3.org/2000/svg" xmlns:xlink="http://www.w3.org/1999/xlink" x="0" y="0" width="420" height="805" viewBox="0, 0, 420, 805">
  <g id="Layer_1">
    <path d="M336.766,50.654 C318.488,62.931 298.287,78.134 282.006,95.091 C253.119,125.177 224.47,159.095 199.847,193.033 C183.213,215.958 161.632,250.747 149.841,276.337 C134.15,310.393 124.856,334.253 116.244,371.669 C104.112,424.383 105.785,478.479 118.107,529.479 C136.236,604.51 194.257,667.289 252.237,718.25 C297.595,758.112 358.577,784.191 412.157,803.347 L417.694,788.717 C364.604,769.747 308.334,744.407 264.864,706.157 C208.944,656.948 157.294,596.938 135.014,525.427 C121.444,481.897 118.294,434.137 125.414,387.887 C131.651,347.371 147.332,306.767 162.607,269.848 C175.165,239.498 189.807,215.856 207.667,190.955 C230.312,159.382 255.196,128.59 281.648,100.475 C298.771,82.276 321.671,65.846 340.063,53.493 z" fill="#000000" id="path3035"/>
    <path d="M313.546,758.633 C313.546,758.633 275.912,746.734 246.046,750.24 C198.631,755.804 194.26,785.24 194.26,785.24 C194.26,785.24 213.282,797.049 254.081,792.561 C301.877,787.304 313.545,758.632 313.545,758.632 z" fill="#000000" id="path3809"/>
    <path d="M249.456,714.672 C249.456,714.672 217.74,699.628 187.67,699.852 C135.612,700.237 132.491,727.888 132.491,727.888 C132.491,727.888 151.334,741.482 193.027,740.923 C241.107,740.279 249.456,714.673 249.456,714.673 z" fill="#000000" id="path3811"/>
    <path d="M202.046,668.443 C202.046,668.443 171.889,642.013 142.72,634.703 C92.222,622.051 75.496,651.434 75.496,651.434 C75.496,651.434 94.267,673.953 134.773,683.845 C181.484,695.25 202.046,668.443 202.046,668.443 z" fill="#000000" id="path3813"/>
    <path d="M148.506,597.233 C148.506,597.233 122.716,570.048 87.412,559.201 C41.339,545.044 19.683,572.836 19.051,573.531 C19.051,573.531 37.93,597.294 77.318,607.711 C130.15,621.684 148.506,597.233 148.506,597.233 z" fill="#000000" id="path3815"/>
    <path d="M123.006,540.562 C123.006,540.562 98.987,503.987 63.162,486.723 C28.361,469.943 2.937,484.233 2.306,484.793 C2.306,484.793 20.183,517.463 53.073,533.117 C97.76,554.388 123.011,540.559 123.011,540.559 z" fill="#000000" id="path3817"/>
    <path d="M115.266,490.833 C102.446,478.773 101.491,445.993 83.167,419.393 C57.604,382.283 15.437,384.973 14.806,385.323 C14.806,385.323 19.321,431.557 51.287,459.501 C85.26,489.198 115.265,490.836 115.265,490.836 z" fill="#000000" id="path3819"/>
    <path d="M111.726,412.902 C111.726,412.902 112.971,372.717 102.374,342.202 C87.591,299.633 47.236,291.276 46.535,291.443 C46.535,291.443 39.99,336.962 63.383,372.395 C88.244,410.052 111.727,412.902 111.727,412.902 z" fill="#000000" id="path3821"/>
    <path d="M128.816,337.592 C128.816,337.592 136.866,303.858 132.788,271.812 C126.642,223.516 89.058,213.292 88.34,213.362 C88.34,213.362 75.456,258.095 93.785,296.393 C113.264,337.095 128.816,337.592 128.816,337.592 z" fill="#000000" id="path3823"/>
    <path d="M161.926,256.733 C161.926,256.733 175.015,226.217 173.338,193.958 C171.01,149.187 140.673,130.273 139.953,130.247 C139.953,130.247 110.702,156.621 127.502,213.392 C137.693,247.829 161.927,256.734 161.927,256.734 z" fill="#000000" id="path3830"/>
    <path d="M204.046,190.253 C204.046,190.253 223.497,160.291 228.878,128.439 C233.93,98.536 221.798,65.958 219.09,62.964 C219.09,62.964 187.44,76.874 188.625,130.258 C189.422,166.163 204.047,190.253 204.047,190.253 z" fill="#000000" id="path3832"/>
    <path d="M255.796,126.103 C255.796,126.103 278.988,101.406 285.029,67.637 C290.029,39.653 284.989,9.243 279.719,1.653 C279.719,1.653 249.469,20.448 247.271,67.98 C245.613,103.855 253.398,120.93 255.797,126.107 z" fill="#000000" id="path3834"/>
    <path d="M293.336,86.759 C293.336,86.759 337.535,88.356 359.502,75.603 C384.091,61.326 408.221,30.34 410.125,21.294 C410.125,21.294 371.413,4.319 335.319,35.326 C308.077,58.728 295.457,81.463 293.336,86.759 z" fill="#000000" id="path3836"/>
    <path d="M244.636,140.083 C244.636,140.083 265.777,115.331 302.105,108.936 C330.107,104.007 351.634,108.558 365.455,116.611 C365.455,116.611 344.133,143.929 303.265,147.695 C267.503,150.99 249.889,142.309 244.635,140.082 z" fill="#000000" id="path3838"/>
    <path d="M200.946,197.152 C200.946,197.152 221.076,173.41 257.405,167.016 C285.407,162.088 298.853,167.144 312.674,175.197 C312.674,175.197 295.645,201.253 254.777,205.018 C219.015,208.313 206.199,199.38 200.945,197.153 z" fill="#000000" id="path3840"/>
    <path d="M158.536,271.603 C158.536,271.603 177.341,242.34 211.344,228.04 C246.187,213.386 264.083,220.384 279.069,225.978 C274.29,233.146 254.732,263.028 223.023,271.998 C188.466,281.774 164.091,272.907 158.536,271.602 z" fill="#000000" id="path3842"/>
    <path d="M133.366,337.723 C133.366,337.723 150.03,307.19 182.922,290.495 C216.628,273.385 234.978,279.085 250.326,283.592 C246.072,291.085 228.702,322.288 197.716,333.504 C163.946,345.727 139,338.627 133.366,337.723 z" fill="#000000" id="path3844"/>
    <path d="M120.146,416.303 C134.567,397.814 142.407,377.937 164.595,358.154 C191.931,333.781 215.387,341.551 231.306,343.125 C223.47,357.844 211.703,381.128 187.386,398.671 C158.26,419.682 125.85,416.144 120.146,416.303 z" fill="#000000" id="path3846"/>
    <path d="M121.936,488.703 C134.198,468.717 140.017,453.138 159.852,430.996 C184.289,403.717 207.457,408.561 223.452,408.344 C217.312,423.847 206.962,447.039 184.76,467.193 C158.168,491.331 127.585,487.906 121.936,488.703 z" fill="#000000" id="path3848"/>
    <path d="M137.706,546.432 C156.154,517.951 153.826,511.505 171.882,487.891 C191.274,462.529 215.767,463.225 231.693,461.725 C226.816,477.672 219.528,499.242 198.856,520.963 C176.811,544.125 153.881,541.143 137.707,546.432 z" fill="#000000" id="path3850"/>
    <path d="M168.016,603.003 C179.646,577.805 177.638,562.07 188.302,544.208 C205.744,514.995 222.843,513.734 238.769,512.235 C226.066,548.631 229.007,548.799 215.023,570.968 C201.416,592.539 182.927,595.442 168.016,603.003 z" fill="#000000" id="path3852"/>
    <path d="M204.556,650.573 C211.184,623.623 204.455,615.376 211.529,595.812 C223.1,563.817 239.648,559.329 254.998,554.83 C253.233,576.309 255.898,589.936 243.859,613.217 C235.358,629.657 217.758,640.315 204.556,650.573 z" fill="#000000" id="path3854"/>
    <path d="M278.206,597.662 C278.206,597.662 291.499,623.326 287.084,653.07 C280.828,695.214 258.307,701.529 258.307,701.529 C258.307,701.529 245.48,682.373 246.784,643.506 C248.176,601.99 278.207,597.661 278.207,597.661 z" fill="#000000" id="path3856"/>
    <path d="M326.186,640.593 C326.186,640.593 339.489,666.577 336.579,696.507 C332.849,734.863 311.843,744.46 311.843,744.46 C311.843,744.46 298.611,723.048 298.047,690.732 C297.187,641.386 326.187,640.594 326.187,640.594 z" fill="#000000" id="path3858"/>
  </g>
</svg>
