<svg version="1.1" xmlns="http://www.w3.org/2000/svg" xmlns:xlink="http://www.w3.org/1999/xlink" x="0" y="0" width="420" height="805" viewBox="0, 0, 420, 805">
  <g id="Layer_1">
    <path d="M82.495,51.307 C100.773,63.584 120.974,78.787 137.255,95.744 C166.142,125.83 194.791,159.748 219.414,193.685 C236.048,216.611 257.629,251.4 269.42,276.99 C285.111,311.046 294.405,334.905 303.017,372.322 C315.149,425.035 313.477,479.132 301.154,530.132 C283.025,605.163 225.004,667.942 167.024,718.902 C121.666,758.765 60.684,784.844 7.104,804 L1.604,789.38 C54.702,770.398 110.974,745.061 154.444,706.808 C210.361,657.605 262.004,597.598 284.294,526.078 C297.86,482.547 301.01,434.783 293.891,388.538 C287.653,348.022 271.973,307.417 256.698,270.498 C244.14,240.149 229.498,216.507 211.638,191.606 C188.993,160.032 164.109,129.241 137.657,101.126 C120.534,82.927 97.634,66.497 79.242,54.144 z" fill="#000000" id="path3862"/>
    <path d="M105.795,759.285 C105.795,759.285 143.429,747.387 173.295,750.892 C220.71,756.456 225.081,785.892 225.081,785.892 C225.081,785.892 206.059,797.701 165.259,793.214 C117.463,787.956 105.795,759.284 105.795,759.284 z" fill="#000000" id="path3864"/>
    <path d="M169.795,715.325 C169.795,715.325 201.511,700.281 231.581,700.504 C283.639,700.89 286.76,728.54 286.76,728.54 C286.76,728.54 267.917,742.135 226.224,741.576 C178.144,740.931 169.795,715.326 169.795,715.326 z" fill="#000000" id="path3866"/>
    <path d="M217.295,669.095 C217.295,669.095 247.452,642.665 276.621,635.356 C327.119,622.703 343.845,652.086 343.845,652.086 C343.845,652.086 325.074,674.606 284.568,684.497 C237.857,695.903 217.295,669.095 217.295,669.095 z" fill="#000000" id="path3868"/>
    <path d="M270.795,597.885 C270.795,597.885 296.585,570.7 331.889,559.853 C377.962,545.697 399.618,573.489 400.25,574.184 C400.25,574.184 381.371,597.946 341.984,608.363 C289.152,622.336 270.796,597.885 270.796,597.885 z" fill="#000000" id="path3870"/>
    <path d="M296.295,541.215 C296.295,541.215 320.314,504.639 356.139,487.375 C390.945,470.601 416.368,484.887 417,485.449 C417,485.449 399.123,518.119 366.233,533.774 C321.546,555.045 296.295,541.215 296.295,541.215 z" fill="#000000" id="path3872"/>
    <path d="M303.995,491.485 C316.812,479.426 317.769,446.647 336.093,420.044 C361.656,382.933 403.822,385.625 404.453,385.972 C404.453,385.972 399.939,432.206 367.972,460.15 C333.999,489.847 303.994,491.485 303.994,491.485 z" fill="#000000" id="path3874"/>
    <path d="M307.595,413.555 C307.595,413.555 306.35,373.37 316.947,342.854 C331.73,300.285 372.085,291.928 372.786,292.095 C372.786,292.095 379.331,337.614 355.938,373.047 C331.078,410.704 307.594,413.554 307.594,413.554 z" fill="#000000" id="path3876"/>
    <path d="M290.495,338.245 C290.495,338.245 282.445,304.51 286.523,272.465 C292.67,224.168 330.253,213.944 330.971,214.014 C330.971,214.014 343.855,258.747 325.526,297.045 C306.047,337.747 290.495,338.245 290.495,338.245 z" fill="#000000" id="path3878"/>
    <path d="M257.395,257.385 C257.395,257.385 244.306,226.869 245.983,194.61 C248.311,149.839 278.648,130.925 279.368,130.899 C279.368,130.899 308.619,157.273 291.819,214.044 C281.628,248.481 257.394,257.386 257.394,257.386 z" fill="#000000" id="path3880"/>
    <path d="M215.195,190.905 C215.195,190.905 195.744,160.943 190.363,129.091 C185.311,99.188 197.443,66.61 200.152,63.616 C200.152,63.616 231.802,77.526 230.617,130.91 C229.819,166.815 215.195,190.905 215.195,190.905 z" fill="#000000" id="path3882"/>
    <path d="M163.495,126.755 C163.495,126.755 140.303,102.058 134.262,68.289 C129.255,40.3 134.296,9.89 139.572,2.3 C139.572,2.3 169.822,21.095 172.02,68.627 C173.679,104.502 165.894,121.577 163.495,126.754 z" fill="#000000" id="path3884"/>
    <path d="M125.995,87.412 C125.995,87.412 81.796,89.009 59.829,76.255 C35.24,61.979 11.11,30.992 9.206,21.946 C9.206,21.946 47.918,4.971 84.012,35.978 C111.254,59.38 123.874,82.115 125.995,87.412 z" fill="#000000" id="path3886"/>
    <path d="M174.695,140.735 C174.695,140.735 153.554,115.983 117.226,109.588 C89.224,104.659 67.697,109.21 53.876,117.263 C53.876,117.263 75.198,144.581 116.066,148.347 C151.828,151.642 169.442,142.962 174.696,140.735 z" fill="#000000" id="path3888"/>
    <path d="M218.295,197.805 C218.295,197.805 198.165,174.063 161.836,167.669 C133.834,162.74 120.388,167.796 106.567,175.849 C106.567,175.849 123.596,201.905 164.464,205.67 C200.226,208.965 213.042,200.032 218.296,197.805 z" fill="#000000" id="path3890"/>
    <path d="M260.795,272.255 C260.795,272.255 241.99,242.993 207.987,228.693 C173.144,214.039 155.248,221.036 140.262,226.63 C145.041,233.799 164.599,263.68 196.308,272.65 C230.865,282.427 255.24,273.559 260.795,272.255 z" fill="#000000" id="path3892"/>
    <path d="M285.895,338.375 C285.895,338.375 269.231,307.843 236.339,291.147 C202.633,274.038 184.283,279.737 168.935,284.245 C173.189,291.737 190.559,322.941 221.545,334.157 C255.315,346.38 280.261,339.279 285.895,338.375 z" fill="#000000" id="path3894"/>
    <path d="M299.095,416.955 C284.674,398.466 276.834,378.589 254.646,358.806 C227.31,334.433 203.854,342.203 187.935,343.777 C195.772,358.496 207.538,381.78 231.855,399.323 C260.981,420.334 293.391,416.796 299.095,416.956 z" fill="#000000" id="path3896"/>
    <path d="M297.395,489.355 C285.133,469.369 279.314,453.79 259.479,431.648 C235.042,404.37 211.874,409.213 195.879,408.996 C202.019,424.499 212.369,447.691 234.571,467.845 C261.163,491.983 291.745,488.558 297.395,489.355 z" fill="#000000" id="path3898"/>
    <path d="M281.595,547.085 C263.147,518.604 265.475,512.158 247.419,488.543 C228.027,463.181 203.534,463.878 187.608,462.378 C192.485,478.324 199.774,499.895 220.445,521.615 C242.49,544.778 265.42,541.796 281.594,547.085 z" fill="#000000" id="path3900"/>
    <path d="M251.295,603.655 C239.665,578.457 241.673,562.722 231.009,544.861 C213.567,515.648 196.468,514.387 180.542,512.888 C193.245,549.284 190.304,549.452 204.288,571.62 C217.895,593.191 236.384,596.094 251.295,603.656 z" fill="#000000" id="path3902"/>
    <path d="M214.695,651.225 C208.067,624.275 214.797,616.028 207.722,596.465 C196.151,564.469 179.603,559.981 164.253,555.482 C166.018,576.961 163.353,590.588 175.392,613.869 C183.894,630.309 201.493,640.967 214.695,651.225 z" fill="#000000" id="path3904"/>
    <path d="M141.095,598.315 C141.095,598.315 127.802,623.979 132.218,653.723 C138.474,695.867 160.995,702.181 160.995,702.181 C160.995,702.181 173.822,683.026 172.518,644.159 C171.125,602.643 141.095,598.314 141.095,598.314 z" fill="#000000" id="path3906"/>
    <path d="M93.095,641.245 C93.095,641.245 79.792,667.229 82.703,697.159 C86.433,735.515 107.439,745.112 107.439,745.112 C107.439,745.112 120.671,723.7 121.235,691.384 C122.095,642.038 93.095,641.246 93.095,641.246 z" fill="#000000" id="path3908"/>
  </g>
</svg>
