<svg xmlns="http://www.w3.org/2000/svg" xmlns:xlink="http://www.w3.org/1999/xlink">
  <symbol id="en" enable-background="new 0 0 512 512" viewBox="0 0 512 512">
    <g transform="matrix(1.25 0 0 -1.25 0 45)">
    	<g fill="#00247D">
    		<path d="M0-111.911h64.034L0-67.083V-111.911z"/>
    		<path d="m53.066-316.71h94.845v66.412l-94.845-66.412z"/>
    		<path d="m261.69-250.31v-66.401h94.834l-94.834 66.401z"/>
    		<path d="M0-225.689v-44.84l64.057,44.84H0z"/>
    		<path d="m356.58-20.889h-94.857v-66.412l94.857 66.412z"/>
    		<path d="m345.53-225.69l64.068-44.851v44.851h-64.068z"/>
    		<path d="m345.56-111.91h64.045v44.84l-64.045-44.84z"/>
    		<path d="m147.91-20.889h-94.845l94.845-66.412v66.412z"/>
    	</g>
    	<g fill="#CF1B2B">
    		<path d="m286.04-225.69l110.5-77.38c5.359 5.461 9.193 12.311 11.264 19.9l-82.091 57.481h-39.674z"/>
    		<path d="m147.91-225.69h-24.36l-110.49-77.369c5.928-6.03 13.528-10.342 22.05-12.345l112.8 78.985v10.729z"/>
    		<path d="m261.69-111.91h24.36l110.49 77.369c-5.928 6.03-13.528 10.342-22.039 12.345l-112.81-78.985v-10.729z"/>
    		<path d="m123.55-111.91l-110.49 77.369c-5.359-5.461-9.193-12.311-11.275-19.9l82.091-57.469h39.673z"/>
    	</g>
    	<g fill="#eee">
    		<path d="m409.6-202.93h-170.67v-113.78h22.756v66.401l94.834-66.401h7.566c12.709 0 24.189 5.245 32.449 13.642l-110.5 77.38h39.674l82.091-57.481c1.058 3.834 1.798 7.805 1.798 11.969v0.66l-64.068 44.851h64.068v22.757z"/>
    		<path d="M0-202.933v-22.756h64.057L0-270.529v-0.671c0-12.413,4.995-23.643,13.062-31.858l110.49,77.369      h24.36v-10.729L35.112-315.403c3.345-0.785,6.804-1.308,10.399-1.308h7.555l94.845,66.412v-66.412h22.756v113.778H0z"/>
    		<path d="m409.6-66.4c0 12.413-4.995 23.643-13.062 31.858l-110.49-77.369h-24.36v10.729l112.81 78.985c-3.356 0.785-6.815 1.308-10.411 1.308h-7.543l-94.857-66.412v66.412h-22.756v-113.78h170.67v22.756h-64.046l64.046 44.84v0.671z"/>
    		<path d="M147.911-20.889v-66.412L53.066-20.889h-7.555c-12.72,0-24.189-5.245-32.449-13.653      l110.49-77.369H83.877L1.786-54.442C0.74-58.276,0-62.236,0-66.4v-0.671l64.034-44.84H0v-22.756h170.667v113.778H147.911z"/>
    	</g>
    	<path d="m238.93-134.67v113.78h-68.267v-113.78h-170.67v-68.266h170.67v-113.78h68.267v113.78h170.67v68.266h-170.67z" fill="#CF1B2B" />
    </g>
  </symbol>
  <symbol id="pt" enable-background="new 0 0 512 512" viewBox="0 0 512 512">
    <g transform="matrix(1.25 0 0 -1.25 0 45)">
    	<path d="m409.6-271.2c0-25.134-20.378-45.511-45.511-45.511h-318.58c-25.133 0-45.511 20.377-45.511 45.511v204.8c0 25.134 20.378 45.511 45.511 45.511h318.58c25.134 0 45.511-20.378 45.511-45.511v-204.8z" fill="#009B3A"/>
    	<path d="m372.36-168.8l-167.57-126.57-167.57 126.57 167.57 126.58 167.57-126.58z" fill="#FEDF01"/>
    	<path d="m278-167.89c0 40.585-32.905 73.478-73.478 73.478-40.585 0-73.478-32.893-73.478-73.478 0-40.573 32.893-73.478 73.478-73.478 40.573 1e-3 73.478 32.905 73.478 73.478" fill="#002776"/>
    	<path d="m139.68-133.42c-3.777-7.066-6.349-14.825-7.646-23.017 45.443 3.3 107.14-21.527 133.62-52.292 4.574 6.872 7.964 14.575 10.035 22.801-32.666 31.96-90.067 52.69-136.01 52.508" fill="#CBE9D4"/>
    	<g fill="#88C9F9">
    		<path d="m147.91-182.83h-11.378v11.378h11.378v-11.378z"/>
    		<path d="m159.29-205.58h-11.378v11.378h11.378v-11.378z"/>
    	</g>
    	<g fill="#55ACEE">
    		<path d="m182.04-182.83h-11.378v11.378h11.378v-11.378z"/>
    		<path d="m204.8-194.21h-11.378v11.378h11.378v-11.378z"/>
    		<path d="m250.31-216.96h-11.378v11.378h11.378v-11.378z"/>
    		<path d="M216.178-228.34H204.8v11.378h11.378V-228.34z"/>
    		<path d="m250.31-160.07h-11.378v11.378h11.378v-11.378z"/>
    	</g>
    	<path d="m227.56-205.58h-11.378v11.378h11.378v-11.378z" fill="#3B88C3"/>
    </g>
  </symbol>
</svg>
